<?xml version="1.0" encoding="UTF-8"?>
<svg xmlns="http://www.w3.org/2000/svg" xmlns:xlink="http://www.w3.org/1999/xlink" version="1.1" viewBox="0 0 1000 1000">
  <defs>
    <style>
      .cls-1 {
        clip-path: url(#clippath);
      }

      .cls-2, .cls-3, .cls-4, .cls-5, .cls-6, .cls-7 {
        stroke-width: 0px;
      }

      .cls-2, .cls-8 {
        fill: none;
      }

      .cls-3 {
        fill: #ed1c24;
      }

      .cls-4 {
        fill: #f19824;
      }

      .cls-5 {
        fill: #000;
      }

      .cls-6 {
        fill: #f15a24;
      }

      .cls-8 {
        stroke: #000;
        stroke-miterlimit: 10;
        stroke-width: 10.75px;
      }

      .cls-7 {
        fill: red;
      }

      .cls-9 {
        fill: #fff;
        font-family: FONTSPRINGDEMO-FigginsStandardBlackRegular, 'FONTSPRING DEMO - Figgins Standard Black';
        font-size: 63.37px;
      }

      .cls-10 {
        display: none;
      }
    </style>
    <clipPath id="clippath">
      <path class="cls-2" d="M118.01-.18h790.99v1000.18H118.01V-.18ZM745.92,436.86l-45.38,6.16-4.77,161.3-17.78,5.42-35.11-159.5-89.15,10.17,11.5,180.56-17.78,5.42-44.5-178.26-90.73,11.62,10.13,201-17.78,5.42-46.88-201.42-74.62,11.18-53.78,304.11h.02c-.26,1.61.67,3.15,2.2,3.67l156.81,52.21c13.24,4.4,27.44,5,40.99,1.73l373.45-90.17-56.85-330.63ZM548.95,436.11l192.28-26.32-13.88-64.15-179.25,63.42.86,27.04Z"/>
    </clipPath>
  </defs>
  <g id="bg" class="cls-10">
    <rect class="cls-5" width="1000" height="1000"/>
  </g>
  <g id="flame" class="cls-10">
    <text/>
    <g>
      <text/>
      <path class="cls-3" d="M826.72,594.35"/>
      <path class="cls-3" d="M815.26,615"/>
      <path class="cls-3" d="M853.56,645.58"/>
      <path class="cls-3" d="M872.98,659.68"/>
    </g>
  </g>
  <g id="lineart">
    <path class="cls-8" d="M623.84-92.71"/>
    <g class="cls-1">
      <g id="g10">
        <path id="path5" class="cls-6" d="M567.36,765.52h.33v.02c42.72,0,80.71-20.18,105.04-51.49-24.41,31.23-62.52,51.37-105.37,51.46h0Z"/>
        <path id="path6" class="cls-6" d="M848.19,404.23c-51.27,67.56-132.39,111.19-223.73,111.19h-.53c91.53-.26,172.78-43.85,224.19-111.18-14.31-23.72-31.08-45.79-49.98-65.9.04-.08.08-.15.12-.23l.04.03s-.01-.01-.02-.02v-.03h-.01c-10-10.67-20.6-20.79-31.74-30.3-.2-.18-.41-.34-.6-.52-1.03-.88-2.07-1.75-3.11-2.63-30.5-25.39-64.94-46.2-102.26-61.43-73.01-37.88-189.11-91.37-189.11-158.14,0-19.92,4.23-38.86,11.84-55.94,7.07-15.89-11.39-30.72-25.38-20.4-69.27,51.09-114.2,133.27-114.2,225.95,0,6.15.27,12.23.66,18.28h-.02c6.58,101.99,67.58,189.11,154.29,232.65,16.27,2.93,33.02,4.55,50.13,4.55,1.68,0,3.34-.01,5.01-.04-2.24.05-4.47.09-6.73.09h.02c-17.22,0-34.04-1.62-50.43-4.56,2.17,1.09,4.36,2.14,6.58,3.17-8.36-2.95-16.85-5.54-25.44-7.78-86.62-22.57-156.95-85.42-189.73-167.39-4.3-10.74-17.74-14.31-26.56-6.82-84.38,71.49-137.94,178.21-138.01,297.47-.11,212.29,172.11,387.18,384.37,390.18,217.98,3.08,395.65-172.7,395.65-389.96,0-73.24-20.21-141.75-55.32-200.3h-.01ZM512.42,992.5c-100.57-1.43-182.15-84.28-182.11-184.87.03-56.5,25.42-107.06,65.4-140.94,4.19-3.54,10.55-1.85,12.59,3.24,15.53,38.83,48.86,68.61,89.9,79.3,4.16,1.09,8.26,2.37,12.3,3.81-1.13-.53-2.25-1.06-3.36-1.62,7.76,1.39,15.74,2.16,23.9,2.16h.33c-7.94-.03-15.7-.79-23.26-2.15-41.08-20.63-69.99-61.91-73.11-110.23,24.23-11.69,51.41-18.24,80.12-18.24,24.64,0,48.16,4.84,69.64,13.59h-.02c-21.5-8.76-45.01-13.59-69.65-13.59-28.7,0-55.88,6.55-80.12,18.24-.19-2.87-.31-5.76-.31-8.67,0-43.92,21.31-82.84,54.12-107.06,6.62-4.89,15.38,2.13,12.02,9.66-3.61,8.12-5.62,17.08-5.62,26.52,0,31.63,54.96,56.97,89.56,74.9,4.63,1.89,9.17,3.95,13.61,6.2,19.47,9.84,36.95,23.02,51.71,38.79h0s-.03.07-.05.1c8.95,9.51,16.89,19.98,23.68,31.21,0,0-.01.02-.02.02,16.64,27.75,26.21,60.2,26.21,94.9,0,102.95-84.17,186.22-187.46,184.76v-.02Z"/>
        <path id="path7" class="cls-4" d="M673.69,712.82c-6.79-11.24-14.73-21.7-23.68-31.21.02-.03.03-.07.05-.1h0c-14.76-15.77-32.24-28.95-51.71-38.79-4.43-2.25-8.97-4.3-13.61-6.2h.02c-21.5-8.75-45-13.59-69.64-13.59-28.71,0-55.9,6.55-80.12,18.24,3.11,48.32,32.02,89.6,73.11,110.23,7.56,1.36,15.32,2.13,23.26,2.15h-.33c-8.16,0-16.13-.77-23.9-2.16,1.11.56,2.23,1.1,3.36,1.62-4.05-1.44-8.15-2.72-12.3-3.81-41.04-10.69-74.37-40.47-89.9-79.3-2.04-5.09-8.4-6.78-12.59-3.24-39.97,33.88-65.36,84.43-65.4,140.94-.04,100.59,81.54,183.44,182.11,184.87,103.29,1.46,187.46-81.81,187.46-184.76,0-34.7-9.57-67.15-26.21-94.9,0,0,.01-.02.02-.02v.02ZM567.67,765.54v-.02h-.32c42.84-.09,80.95-20.22,105.37-51.46-24.34,31.31-62.33,51.49-105.05,51.49h0Z"/>
        <path id="path8" class="cls-4" d="M495.2,561.62c0-9.44,2.01-18.4,5.62-26.52,3.36-7.53-5.4-14.55-12.02-9.66-32.81,24.21-54.12,63.14-54.12,107.06,0,2.92.12,5.8.31,8.67,24.25-11.69,51.42-18.24,80.12-18.24,24.64,0,48.16,4.84,69.65,13.59-34.6-17.94-89.56-43.28-89.56-74.9Z"/>
        <path id="path9" class="cls-6" d="M242.11,225.85v-66.17c0-23.56-19.13-42.66-42.66-42.66v66.17c0,23.56,19.13,42.66,42.66,42.66Z"/>
        <path id="path10" class="cls-6" d="M718.72,102.46V32.96c-24.74,0-44.81,20.07-44.81,44.81v69.5c24.74,0,44.81-20.07,44.81-44.81Z"/>
      </g>
    </g>
  </g>
  <g id="punch" class="cls-10">
    <g>
      <polygon class="cls-3" points="31.4 62.51 74.43 -180.8 133.59 -189.66 170.76 -29.99 184.85 -34.28 176.82 -193.63 248.74 -202.84 284.02 -61.53 298.11 -65.82 288.99 -208.96 359.67 -217.02 387.49 -90.57 401.59 -94.86 405.37 -222.72 441.34 -227.61 486.4 34.51 173.9 109.96 31.4 62.51"/>
      <polygon class="cls-7" points="284.53 -249.66 426.63 -299.94 437.63 -249.08 285.21 -228.23 284.53 -249.66"/>
    </g>
  </g>
  <g id="text" class="cls-10">
    <text class="cls-9" transform="translate(61.64 444.73)"><tspan x="0" y="0">PUNCHSTARTER</tspan></text>
    <text/>
  </g>
</svg>