<?xml version="1.0" encoding="UTF-8"?>
<svg id="Layer_1" data-name="Layer 1" xmlns="http://www.w3.org/2000/svg" xmlns:xlink="http://www.w3.org/1999/xlink" xmlns:svg="http://www.w3.org/2000/svg" xmlns:sodipodi="http://sodipodi.sourceforge.net/DTD/sodipodi-0.dtd" xmlns:inkscape="http://www.inkscape.org/namespaces/inkscape" version="1.1" viewBox="0 0 2000 799.51">
  <defs>
    <style>
      .cls-1 {
        stroke: #f19824;
      }

      .cls-1, .cls-2 {
        fill: #f19824;
      }

      .cls-1, .cls-3 {
        stroke-miterlimit: 10;
        stroke-width: 8.54px;
      }

      .cls-4 {
        fill: #fff;
        font-family: FONTSPRINGDEMO-FigginsStandardBlackRegular, 'FONTSPRING DEMO - Figgins Standard Black';
        font-size: 63.37px;
      }

      .cls-4, .cls-5 {
        isolation: isolate;
      }

      .cls-6 {
        clip-path: url(#clippath);
      }

      .cls-7 {
        fill: none;
      }

      .cls-7, .cls-8, .cls-2, .cls-9, .cls-10, .cls-11 {
        stroke-width: 0px;
      }

      .cls-8 {
        fill: #ed1c24;
      }

      .cls-9 {
        fill: #000;
      }

      .cls-10, .cls-3 {
        fill: #f15a24;
      }

      .cls-3 {
        stroke: #f15a24;
      }

      .cls-11 {
        fill: red;
      }

      .cls-5, .cls-12 {
        display: none;
      }
    </style>
    <clipPath id="clippath">
      <path class="cls-7" d="M0-2.26h635.87v804.03H0V-2.26ZM504.77,349.07l-36.48,4.95-3.84,129.67-14.29,4.36-28.22-128.22-71.67,8.17,9.25,145.15-14.29,4.36-35.78-143.3-72.94,9.35,8.15,161.58-14.29,4.36-37.69-161.92-59.99,8.98-43.23,244.47h.02c-.21,1.3.54,2.53,1.77,2.95l126.05,41.97c10.64,3.54,22.06,4.02,32.95,1.39l300.21-72.49-45.7-265.79ZM346.43,348.47l154.57-21.16-11.16-51.57-144.1,50.98.69,21.74Z"/>
    </clipPath>
  </defs>
  <sodipodi:namedview id="namedview15" bordercolor="#999999" borderopacity="1" inkscape:current-layer="Layer_1" inkscape:cx="575.70806" inkscape:cy="753.44344" inkscape:deskcolor="#d1d1d1" inkscape:pagecheckerboard="0" inkscape:pageopacity="0" inkscape:showpageshadow="2" inkscape:window-height="916" inkscape:window-maximized="0" inkscape:window-width="1464" inkscape:window-x="54" inkscape:window-y="38" inkscape:zoom="0.38821759" pagecolor="#ffffff"/>
  <g id="_defs" data-name="&amp;lt;defs">
    <inkscape:path-effect id="path-effect16" effect="powerclip" flatten="false" hide_clip="false" inverse="true" is_visible="true" lpeversion="1" message="Use fill-rule evenodd on &lt;b&gt;fill and stroke&lt;/b&gt; dialog if no flatten result after convert clip to paths."/>
  </g>
  <g id="bg" class="cls-12">
    <rect id="rect1" class="cls-9" x="500" y="-88.53" width="1000" height="1000"/>
  </g>
  <g id="flame" class="cls-12">
    <g id="g4">
      <path id="path1" class="cls-8" d="M1326.72,505.82"/>
      <path id="path2" class="cls-8" d="M1315.26,526.47"/>
      <path id="path3" class="cls-8" d="M1353.56,557.05"/>
      <path id="path4" class="cls-8" d="M1372.98,571.15"/>
    </g>
  </g>
  <g class="cls-6">
    <g id="g10" inkscape:path-effect="#path-effect16">
      <path id="path5" class="cls-10" d="M361.22,613.28h.26v.02c34.34,0,64.88-16.22,84.44-41.39-19.62,25.11-50.26,41.29-84.71,41.37h0Z" inkscape:original-d="m 571.07,735.44 c 0.1,0 0.2,0 0.3,0 v 0.02 c 38.95,0 73.59,-18.4 95.78,-46.95 -22.26,28.48 -57.01,46.84 -96.08,46.92 z"/>
      <path id="path6" class="cls-10" d="M586.98,322.84c-41.22,54.31-106.43,89.39-179.85,89.39h-.42c73.58-.21,138.9-35.25,180.22-89.38-11.51-19.07-24.99-36.81-40.18-52.98.04-.06.06-.12.1-.19l.04.03s0,0-.02-.02v-.03h0c-8.04-8.58-16.56-16.72-25.51-24.36-.16-.14-.33-.27-.48-.41-.83-.71-1.67-1.41-2.5-2.12-24.52-20.41-52.2-37.14-82.2-49.38-58.69-30.45-152.03-73.45-152.03-127.13,0-16.01,3.4-31.24,9.52-44.97,5.69-12.77-9.16-24.69-20.4-16.4-55.68,41.07-91.8,107.13-91.8,181.64,0,4.95.22,9.83.53,14.7h-.02c5.29,81.99,54.33,152.03,124.03,187.03,13.08,2.35,26.55,3.66,40.3,3.66,1.35,0,2.69,0,4.03-.04-1.8.04-3.6.07-5.41.07h.02c-13.84,0-27.37-1.3-40.54-3.67,1.75.87,3.51,1.72,5.29,2.55-6.72-2.37-13.54-4.45-20.45-6.25-69.63-18.14-126.17-68.67-152.52-134.56-3.46-8.63-14.26-11.51-21.35-5.48C47.52,302.01,4.46,387.8,4.41,483.67c-.09,170.65,138.36,311.25,308.99,313.66,175.23,2.48,318.06-138.83,318.06-313.49,0-58.87-16.25-113.95-44.47-161.02h0ZM317.06,795.75c-80.84-1.15-146.43-67.75-146.39-148.61.03-45.42,20.44-86.06,52.57-113.3,3.37-2.85,8.48-1.49,10.12,2.6,12.48,31.22,39.28,55.15,72.27,63.75,3.34.87,6.64,1.9,9.89,3.06-.91-.42-1.81-.86-2.7-1.3,6.24,1.12,12.65,1.74,19.21,1.74h.26c-6.38-.03-12.62-.63-18.7-1.73-33.03-16.58-56.26-49.77-58.77-88.61,19.47-9.4,41.33-14.66,64.41-14.66,19.81,0,38.71,3.89,55.98,10.92h-.02c-17.28-7.04-36.18-10.92-55.99-10.92-23.07,0-44.92,5.26-64.41,14.66-.15-2.31-.25-4.63-.25-6.97,0-35.31,17.13-66.6,43.51-86.06,5.32-3.93,12.36,1.71,9.66,7.77-2.9,6.52-4.51,13.73-4.51,21.32,0,25.43,44.18,45.8,71.99,60.21,3.72,1.52,7.37,3.17,10.94,4.98,15.65,7.91,29.7,18.51,41.57,31.18h0s-.03.05-.04.08c7.19,7.64,13.58,16.06,19.03,25.09,0,0,0,.02-.02.02,13.37,22.3,21.07,48.39,21.07,76.29,0,82.76-67.66,149.7-150.69,148.53v-.02Z" inkscape:original-d="m 827.14,406 c -46.75,61.6 -120.72,101.39 -204,101.39 h -0.03 c -0.15,0 -0.3,0 -0.45,0 83.46,-0.24 157.55,-39.98 204.42,-101.38 -13.05,-21.63 -28.34,-41.75 -45.57,-60.09 0.04,-0.07 0.07,-0.14 0.11,-0.21 l 0.04,0.03 c 0,0 -0.01,-0.01 -0.02,-0.02 v -0.03 h -0.01 c 0,0 0,0 0,0.01 -9.12,-9.74 -18.78,-18.97 -28.94,-27.64 -0.18,-0.16 -0.37,-0.31 -0.55,-0.47 -0.94,-0.8 -1.89,-1.6 -2.84,-2.4 -27.81,-23.15 -59.21,-42.13 -93.24,-56.01 -66.57,-34.54 -172.44,-83.31 -172.44,-144.2 0,-18.16 3.86,-35.43 10.8,-51.01 6.45,-14.49 -10.39,-28.01 -23.14,-18.6 -63.16,46.59 -104.13,121.52 -104.13,206.03 0,5.61 0.25,11.15 0.6,16.67 0,0 -0.01,0 -0.02,0 6,93 61.62,172.44 140.69,212.14 14.84,2.67 30.11,4.15 45.71,4.15 1.53,0 3.05,-0.01 4.57,-0.04 -2.04,0.05 -4.08,0.08 -6.14,0.08 h 0.02 c -15.7,0 -31.04,-1.48 -45.98,-4.16 1.98,0.99 3.98,1.95 6,2.89 -7.62,-2.69 -15.36,-5.05 -23.2,-7.09 -78.98,-20.58 -143.11,-77.89 -173,-152.63 -3.92,-9.79 -16.18,-13.05 -24.22,-6.22 -76.94,65.19 -125.78,162.5 -125.84,271.24 -0.1,193.57 156.94,353.04 350.48,355.78 198.76,2.81 360.77,-157.47 360.77,-355.58 0,-66.78 -18.43,-129.25 -50.44,-182.64 z M 520.98,942.41 c -91.7,-1.3 -166.09,-76.85 -166.05,-168.57 0.03,-51.52 23.18,-97.62 59.63,-128.51 3.82,-3.23 9.62,-1.69 11.48,2.95 14.16,35.41 44.55,62.56 81.97,72.31 3.79,0.99 7.53,2.16 11.22,3.47 -1.03,-0.48 -2.05,-0.97 -3.06,-1.48 7.08,1.27 14.35,1.97 21.79,1.97 v 0 c 0.1,0 0.2,0 0.3,0 -7.24,-0.03 -14.32,-0.72 -21.21,-1.96 -37.46,-18.81 -63.82,-56.45 -66.66,-100.51 22.09,-10.66 46.88,-16.63 73.06,-16.63 22.47,0 43.91,4.41 63.5,12.39 0,0 -0.01,0 -0.02,0 -19.6,-7.99 -41.04,-12.39 -63.51,-12.39 -26.17,0 -50.95,5.97 -73.06,16.63 -0.17,-2.62 -0.28,-5.25 -0.28,-7.91 0,-40.05 19.43,-75.54 49.35,-97.62 6.04,-4.46 14.02,1.94 10.96,8.81 -3.29,7.4 -5.12,15.57 -5.12,24.18 0,28.84 50.11,51.95 81.66,68.3 4.22,1.72 8.36,3.6 12.41,5.65 17.75,8.97 33.69,20.99 47.15,35.37 v 0 c 0,0 -0.03,0.06 -0.05,0.09 8.16,8.67 15.4,18.22 21.59,28.46 0,0 -0.01,0.02 -0.02,0.02 15.17,25.3 23.9,54.89 23.9,86.53 0,93.87 -76.75,169.8 -170.93,168.47 z"/>
      <path id="path7" class="cls-2" d="M446.71,570.92c-5.46-9.04-11.84-17.45-19.03-25.09.02-.03.03-.05.04-.08h0c-11.87-12.68-25.92-23.27-41.57-31.18-3.56-1.81-7.21-3.46-10.94-4.98h.02c-17.28-7.04-36.17-10.92-55.98-10.92-23.08,0-44.94,5.26-64.41,14.66,2.5,38.84,25.74,72.03,58.77,88.61,6.07,1.09,12.32,1.71,18.7,1.73h-.26c-6.56,0-12.97-.62-19.21-1.74.89.45,1.79.88,2.7,1.3-3.25-1.15-6.55-2.19-9.89-3.06-32.99-8.6-59.78-32.53-72.27-63.75-1.64-4.09-6.75-5.45-10.12-2.6-32.13,27.23-52.54,67.88-52.57,113.3-.04,80.86,65.55,147.47,146.39,148.61,83.03,1.17,150.69-65.77,150.69-148.53,0-27.89-7.7-53.98-21.07-76.29,0,0,0-.02.02-.02v.02ZM361.48,613.29v-.02h-.26c34.44-.07,65.07-16.26,84.71-41.37-19.56,25.17-50.1,41.39-84.45,41.39h0Z" inkscape:original-d="m 668.03,687.39 c -6.19,-10.25 -13.43,-19.79 -21.59,-28.46 0.02,-0.03 0.03,-0.06 0.05,-0.09 v 0 c -13.46,-14.38 -29.4,-26.4 -47.15,-35.37 -4.04,-2.05 -8.18,-3.92 -12.41,-5.65 0,0 0.01,0 0.02,0 -19.6,-7.98 -41.03,-12.39 -63.5,-12.39 -26.18,0 -50.97,5.97 -73.06,16.63 2.84,44.06 29.2,81.7 66.66,100.51 6.89,1.24 13.97,1.94 21.21,1.96 -0.1,0 -0.2,0 -0.3,0 v 0 c -7.44,0 -14.71,-0.7 -21.79,-1.97 1.01,0.51 2.03,1 3.06,1.48 -3.69,-1.31 -7.43,-2.48 -11.22,-3.47 -37.42,-9.75 -67.81,-36.9 -81.97,-72.31 -1.86,-4.64 -7.66,-6.18 -11.48,-2.95 -36.45,30.89 -59.6,76.99 -59.63,128.51 -0.04,91.72 74.35,167.27 166.05,168.57 94.18,1.33 170.93,-74.6 170.93,-168.47 0,-31.64 -8.73,-61.23 -23.9,-86.53 0,0 0.01,-0.02 0.02,-0.02 z m -96.67,48.07 v -0.02 c -0.09,0 -0.19,0 -0.29,0 39.06,-0.08 73.81,-18.44 96.08,-46.92 -22.19,28.55 -56.83,46.95 -95.79,46.95 z"/>
      <path id="path8" class="cls-2" d="M303.22,449.37c0-7.59,1.61-14.79,4.51-21.32,2.7-6.06-4.34-11.7-9.66-7.77-26.38,19.47-43.51,50.75-43.51,86.06,0,2.35.1,4.66.25,6.97,19.49-9.4,41.34-14.66,64.41-14.66,19.81,0,38.71,3.89,55.99,10.92-27.82-14.42-71.99-34.79-71.99-60.21Z" inkscape:original-d="m 505.28,549.52 c 0,-8.61 1.83,-16.78 5.12,-24.18 3.06,-6.87 -4.92,-13.27 -10.96,-8.81 -29.92,22.08 -49.35,57.57 -49.35,97.62 0,2.66 0.11,5.29 0.28,7.91 22.11,-10.66 46.89,-16.63 73.06,-16.63 22.47,0 43.91,4.41 63.51,12.39 -31.55,-16.36 -81.66,-39.46 -81.66,-68.3 z"/>
      <path id="path9" class="cls-10" d="M99.76,179.44v-53.2c0-18.94-15.38-34.29-34.29-34.29v53.2c0,18.94,15.38,34.29,34.29,34.29Z" inkscape:original-d="m 274.5,243.35 v -60.34 c 0,-21.48 -17.44,-38.9 -38.9,-38.9 v 60.34 c 0,21.48 17.44,38.9 38.9,38.9 z"/>
      <path id="path10" class="cls-10" d="M482.91,80.25V24.38c-19.89,0-36.02,16.13-36.02,36.02v55.87c19.89,0,36.02-16.13,36.02-36.02Z" inkscape:original-d="M 709.09,130.84 V 67.47 c -22.56,0 -40.86,18.3 -40.86,40.86 v 63.37 c 22.56,0 40.86,-18.3 40.86,-40.86 z"/>
    </g>
  </g>
  <g id="punch" class="cls-12">
    <g id="g13">
      <polygon id="polygon12" class="cls-8" points="531.4 -26.02 574.43 -269.33 633.59 -278.19 670.76 -118.52 684.85 -122.81 676.82 -282.16 748.74 -291.37 784.02 -150.06 798.11 -154.35 788.99 -297.49 859.67 -305.55 887.49 -179.1 901.59 -183.39 905.37 -311.25 941.34 -316.14 986.4 -54.02 673.9 21.43 531.4 -26.02"/>
      <polygon id="polygon13" class="cls-11" points="784.53 -338.19 926.63 -388.47 937.63 -337.61 785.21 -316.76 784.53 -338.19"/>
    </g>
  </g>
  <g id="text" class="cls-12">
    <g id="g15" class="cls-5">
      <g id="g14" class="cls-5">
        <g id="text13" class="cls-5">
          <text class="cls-4" transform="translate(561.64 356.2)"><tspan x="0" y="0">PUNCHSTARTER</tspan></text>
        </g>
      </g>
    </g>
  </g>
  <g>
    <path class="cls-3" d="M734.69,519.56c-2.49,0-4.58-.86-6.28-2.58-1.7-1.72-2.54-3.84-2.54-6.37v-116.47c0-2.64.85-4.79,2.54-6.45,1.7-1.66,3.79-2.49,6.28-2.49h33.93c8.48,0,16,1.89,22.56,5.68,6.56,3.79,11.68,9.03,15.35,15.74,3.67,6.71,5.51,14.42,5.51,23.14s-1.84,15.83-5.51,22.37c-3.68,6.54-8.8,11.64-15.35,15.31-6.56,3.67-14.08,5.51-22.56,5.51h-25.11v37.68c0,2.52-.82,4.65-2.46,6.37-1.64,1.72-3.76,2.58-6.36,2.58ZM743.51,456.42h25.11c5.2,0,9.78-1.15,13.74-3.44,3.96-2.29,7.07-5.45,9.33-9.46,2.26-4.01,3.39-8.6,3.39-13.76,0-5.51-1.13-10.35-3.39-14.54-2.26-4.19-5.37-7.48-9.33-9.89-3.96-2.41-8.54-3.61-13.74-3.61h-25.11v54.71Z"/>
    <path class="cls-3" d="M879.91,520.42c-7.8,0-14.79-1.69-20.95-5.08-6.17-3.38-11.03-8.34-14.59-14.88-3.56-6.54-5.34-14.56-5.34-24.09v-42.32c0-2.52.82-4.62,2.46-6.28s3.7-2.49,6.19-2.49,4.55.83,6.19,2.49c1.64,1.66,2.46,3.76,2.46,6.28v42.32c0,6.43,1.19,11.73,3.56,15.91,2.37,4.19,5.6,7.29,9.67,9.29,4.07,2.01,8.65,3.01,13.74,3.01s9.19-.97,12.98-2.92c3.79-1.95,6.81-4.59,9.08-7.91,2.26-3.33,3.39-7.05,3.39-11.18h10.69c0,7.11-1.73,13.54-5.18,19.27-3.45,5.74-8.14,10.27-14.08,13.59-5.94,3.33-12.7,4.99-20.27,4.99ZM917.4,519.56c-2.49,0-4.55-.83-6.19-2.49-1.64-1.66-2.46-3.76-2.46-6.28v-76.73c0-2.64.82-4.76,2.46-6.37,1.64-1.6,3.7-2.41,6.19-2.41s4.69.8,6.28,2.41c1.58,1.61,2.37,3.73,2.37,6.37v76.73c0,2.52-.79,4.62-2.37,6.28-1.59,1.66-3.68,2.49-6.28,2.49Z"/>
    <path class="cls-3" d="M976.27,519.73c-2.49,0-4.55-.83-6.19-2.49-1.64-1.66-2.46-3.76-2.46-6.28v-76.73c0-2.64.82-4.76,2.46-6.37,1.64-1.6,3.7-2.41,6.19-2.41s4.69.8,6.28,2.41c1.58,1.61,2.37,3.73,2.37,6.37v76.73c0,2.52-.79,4.62-2.37,6.28-1.59,1.66-3.68,2.49-6.28,2.49ZM1046,519.73c-2.49,0-4.55-.83-6.19-2.49-1.64-1.66-2.46-3.76-2.46-6.28v-42.32c0-6.54-1.19-11.87-3.56-16-2.38-4.13-5.57-7.2-9.59-9.2-4.02-2.01-8.63-3.01-13.83-3.01-4.75,0-9.05.98-12.89,2.93-3.85,1.95-6.9,4.56-9.16,7.83-2.26,3.27-3.39,7.03-3.39,11.27h-10.69c0-7.23,1.72-13.68,5.17-19.36,3.45-5.68,8.17-10.18,14.17-13.51,5.99-3.32,12.72-4.99,20.19-4.99s14.79,1.69,20.95,5.08c6.16,3.38,11.03,8.35,14.59,14.88,3.56,6.54,5.34,14.57,5.34,24.09v42.32c0,2.52-.82,4.62-2.46,6.28s-3.71,2.49-6.19,2.49Z"/>
    <path class="cls-3" d="M1136.43,520.25c-9.05,0-17.11-2.09-24.18-6.28-7.07-4.19-12.61-9.86-16.63-17.03-4.02-7.17-6.02-15.28-6.02-24.34s1.98-17.55,5.94-24.77c3.96-7.23,9.39-12.87,16.29-16.95,6.9-4.07,14.82-6.11,23.75-6.11,6.67,0,12.78,1.29,18.32,3.87,5.54,2.58,10.52,6.45,14.93,11.61,1.58,1.84,2.15,3.73,1.7,5.68-.45,1.95-1.7,3.67-3.73,5.16-1.59,1.15-3.34,1.52-5.26,1.12-1.92-.4-3.68-1.4-5.26-3.01-5.54-5.96-12.44-8.95-20.7-8.95-5.77,0-10.86,1.35-15.27,4.04-4.41,2.7-7.86,6.45-10.35,11.27-2.49,4.82-3.73,10.49-3.73,17.03,0,6.19,1.27,11.7,3.82,16.52,2.54,4.82,6.08,8.63,10.6,11.44,4.52,2.81,9.78,4.22,15.78,4.22,3.96,0,7.44-.49,10.43-1.46,3-.97,5.74-2.49,8.23-4.56,1.81-1.49,3.67-2.32,5.6-2.49,1.92-.17,3.62.37,5.09,1.63,1.92,1.61,3,3.41,3.22,5.42.23,2.01-.45,3.81-2.04,5.42-8.14,7.69-18.32,11.53-30.54,11.53Z"/>
    <path class="cls-3" d="M1215.99,485.32c-2.49,0-4.55-.83-6.19-2.49-1.64-1.66-2.46-3.76-2.46-6.28v-82.58c0-2.64.82-4.76,2.46-6.37,1.64-1.6,3.7-2.41,6.19-2.41s4.69.8,6.28,2.41c1.58,1.61,2.37,3.73,2.37,6.37v82.58c0,2.52-.79,4.62-2.37,6.28-1.59,1.66-3.68,2.49-6.28,2.49ZM1215.99,519.73c-2.49,0-4.55-.83-6.19-2.49-1.64-1.66-2.46-3.76-2.46-6.28v-76.73c0-2.64.82-4.76,2.46-6.37,1.64-1.6,3.7-2.41,6.19-2.41s4.69.8,6.28,2.41c1.58,1.61,2.37,3.73,2.37,6.37v76.73c0,2.52-.79,4.62-2.37,6.28-1.59,1.66-3.68,2.49-6.28,2.49ZM1285.72,519.73c-2.49,0-4.55-.83-6.19-2.49-1.64-1.66-2.46-3.76-2.46-6.28v-42.32c0-6.54-1.19-11.87-3.56-16-2.38-4.13-5.57-7.2-9.59-9.2-4.02-2.01-8.63-3.01-13.83-3.01-4.75,0-9.05.98-12.89,2.93-3.85,1.95-6.9,4.56-9.16,7.83-2.26,3.27-3.39,7.03-3.39,11.27h-10.69c0-7.23,1.72-13.68,5.17-19.36,3.45-5.68,8.17-10.18,14.17-13.51,5.99-3.32,12.72-4.99,20.19-4.99s14.79,1.69,20.95,5.08c6.16,3.38,11.03,8.35,14.59,14.88,3.56,6.54,5.34,14.57,5.34,24.09v42.32c0,2.52-.82,4.62-2.46,6.28s-3.71,2.49-6.19,2.49Z"/>
    <path class="cls-1" d="M1368,520.25c-7.92,0-15.24-1.23-21.97-3.7-6.73-2.47-11.96-5.59-15.69-9.38-1.7-1.83-2.4-3.93-2.12-6.28.28-2.35,1.38-4.27,3.31-5.76,2.26-1.83,4.5-2.61,6.7-2.32,2.21.29,4.1,1.29,5.68,3.01,1.92,2.18,5.01,4.22,9.25,6.11,4.24,1.89,8.96,2.84,14.17,2.84,6.56,0,11.56-1.09,15.01-3.27,3.45-2.18,5.23-4.99,5.34-8.43.11-3.44-1.5-6.42-4.83-8.95-3.34-2.52-9.42-4.59-18.24-6.19-11.43-2.29-19.71-5.73-24.85-10.32-5.15-4.59-7.72-10.21-7.72-16.86,0-5.85,1.7-10.69,5.09-14.54,3.39-3.84,7.75-6.71,13.06-8.6,5.31-1.89,10.86-2.84,16.63-2.84,7.46,0,14.08,1.2,19.85,3.61,5.77,2.41,10.35,5.74,13.74,9.98,1.58,1.84,2.32,3.76,2.21,5.76-.11,2.01-1.08,3.7-2.88,5.08-1.81,1.26-3.96,1.66-6.45,1.2-2.49-.46-4.58-1.49-6.28-3.1-2.83-2.75-5.88-4.65-9.16-5.68-3.28-1.03-7.07-1.55-11.37-1.55-4.98,0-9.19.86-12.64,2.58-3.45,1.72-5.17,4.25-5.17,7.57,0,2.07.54,3.93,1.61,5.59,1.07,1.66,3.19,3.16,6.36,4.47,3.17,1.32,7.8,2.61,13.91,3.87,8.48,1.72,15.18,3.9,20.1,6.54,4.92,2.64,8.45,5.71,10.6,9.21,2.15,3.5,3.22,7.54,3.22,12.13,0,5.28-1.39,10.04-4.16,14.28-2.77,4.25-6.84,7.63-12.21,10.15-5.37,2.52-12.07,3.78-20.1,3.78Z"/>
    <path class="cls-1" d="M1433.49,443.68c-2.37,0-4.3-.69-5.77-2.06-1.47-1.38-2.21-3.1-2.21-5.16,0-2.29.73-4.13,2.21-5.51,1.47-1.38,3.39-2.06,5.77-2.06h39.19c2.38,0,4.3.69,5.77,2.06,1.47,1.38,2.21,3.21,2.21,5.51,0,2.06-.74,3.79-2.21,5.16-1.47,1.38-3.39,2.06-5.77,2.06h-39.19ZM1471.15,519.56c-5.66,0-10.75-1.46-15.27-4.39-4.53-2.92-8.09-6.91-10.69-11.96-2.6-5.05-3.9-10.72-3.9-17.03v-82.07c0-2.52.79-4.59,2.38-6.19s3.62-2.41,6.11-2.41,4.52.8,6.11,2.41c1.58,1.61,2.38,3.67,2.38,6.19v82.07c0,4.59,1.24,8.43,3.73,11.53,2.49,3.1,5.54,4.65,9.16,4.65h5.77c2.04,0,3.76.8,5.17,2.41,1.41,1.61,2.12,3.67,2.12,6.19s-.93,4.59-2.8,6.19c-1.87,1.61-4.27,2.41-7.21,2.41h-3.05Z"/>
    <path class="cls-1" d="M1555.13,520.25c-8.26,0-15.67-2.09-22.22-6.28-6.56-4.19-11.74-9.86-15.52-17.03-3.79-7.17-5.68-15.28-5.68-24.34s2.06-17.2,6.19-24.43c4.13-7.23,9.73-12.93,16.8-17.12,7.07-4.19,15.01-6.28,23.84-6.28s16.74,2.09,23.75,6.28c7.01,4.19,12.58,9.89,16.71,17.12,4.13,7.23,6.19,15.37,6.19,24.43h-6.62c0,9.06-1.89,17.18-5.68,24.34-3.79,7.17-8.97,12.85-15.52,17.03-6.56,4.19-13.97,6.28-22.22,6.28ZM1558.52,504.76c5.77,0,10.91-1.4,15.44-4.22,4.52-2.81,8.09-6.65,10.69-11.53,2.6-4.87,3.9-10.35,3.9-16.43s-1.3-11.73-3.9-16.6c-2.6-4.87-6.17-8.71-10.69-11.53-4.53-2.81-9.67-4.22-15.44-4.22s-10.77,1.41-15.35,4.22c-4.58,2.81-8.2,6.65-10.86,11.53-2.66,4.88-3.99,10.41-3.99,16.6s1.33,11.56,3.99,16.43c2.66,4.88,6.28,8.72,10.86,11.53,4.58,2.81,9.7,4.22,15.35,4.22ZM1596.53,519.73c-2.49,0-4.55-.83-6.19-2.49-1.64-1.66-2.46-3.76-2.46-6.28v-26.32l3.22-18.24,14.08,6.19v38.37c0,2.52-.82,4.62-2.46,6.28-1.64,1.66-3.71,2.49-6.19,2.49Z"/>
    <path class="cls-1" d="M1650.47,519.56c-2.72,0-4.81-.72-6.28-2.15-1.47-1.43-2.21-3.58-2.21-6.45v-76.9c0-2.75.73-4.87,2.21-6.37s3.56-2.24,6.28-2.24,4.95.72,6.36,2.15c1.41,1.44,2.12,3.59,2.12,6.45v76.9c0,2.75-.71,4.88-2.12,6.37-1.42,1.49-3.54,2.24-6.36,2.24ZM1650.3,460.72c0-6.88,1.67-13.05,5-18.5,3.34-5.45,7.83-9.78,13.49-12.99,5.65-3.21,11.88-4.82,18.66-4.82s11.85,1.12,15.18,3.36c3.34,2.24,4.61,4.9,3.82,8-.34,1.61-.99,2.84-1.95,3.7-.96.86-2.07,1.41-3.31,1.63-1.25.23-2.6.17-4.07-.17-7.24-1.49-13.74-1.6-19.51-.34-5.77,1.26-10.32,3.61-13.66,7.05-3.34,3.44-5,7.8-5,13.08h-8.65Z"/>
    <path class="cls-1" d="M1731.57,443.68c-2.37,0-4.3-.69-5.77-2.06-1.47-1.38-2.21-3.1-2.21-5.16,0-2.29.73-4.13,2.21-5.51,1.47-1.38,3.39-2.06,5.77-2.06h39.19c2.38,0,4.3.69,5.77,2.06,1.47,1.38,2.21,3.21,2.21,5.51,0,2.06-.74,3.79-2.21,5.16-1.47,1.38-3.39,2.06-5.77,2.06h-39.19ZM1769.23,519.56c-5.66,0-10.75-1.46-15.27-4.39-4.53-2.92-8.09-6.91-10.69-11.96-2.6-5.05-3.9-10.72-3.9-17.03v-82.07c0-2.52.79-4.59,2.38-6.19,1.58-1.6,3.62-2.41,6.11-2.41s4.52.8,6.11,2.41c1.58,1.61,2.38,3.67,2.38,6.19v82.07c0,4.59,1.24,8.43,3.73,11.53,2.49,3.1,5.54,4.65,9.16,4.65h5.77c2.04,0,3.76.8,5.17,2.41,1.41,1.61,2.12,3.67,2.12,6.19s-.93,4.59-2.8,6.19c-1.87,1.61-4.27,2.41-7.21,2.41h-3.05Z"/>
    <path class="cls-1" d="M1858.13,520.25c-9.39,0-17.73-2.04-25.02-6.11-7.3-4.07-13.01-9.69-17.14-16.86-4.13-7.17-6.19-15.4-6.19-24.69s1.95-17.69,5.85-24.86c3.9-7.17,9.3-12.79,16.2-16.86,6.9-4.07,14.82-6.11,23.75-6.11s16.4,1.98,22.73,5.94c6.33,3.96,11.17,9.41,14.51,16.34,3.33,6.94,5,14.94,5,24,0,2.18-.74,3.99-2.21,5.42-1.47,1.44-3.34,2.15-5.6,2.15h-68.37v-13.76h67.86l-6.96,4.82c-.11-5.73-1.25-10.87-3.39-15.4-2.15-4.53-5.2-8.11-9.16-10.75-3.96-2.64-8.77-3.96-14.42-3.96-6.45,0-11.96,1.44-16.54,4.3-4.58,2.87-8.06,6.8-10.43,11.79-2.37,4.99-3.56,10.64-3.56,16.95s1.41,11.93,4.24,16.86c2.83,4.93,6.73,8.83,11.71,11.7,4.98,2.87,10.69,4.3,17.13,4.3,3.51,0,7.1-.66,10.77-1.98,3.67-1.32,6.64-2.84,8.91-4.56,1.7-1.26,3.53-1.92,5.51-1.98,1.98-.06,3.7.55,5.17,1.81,1.92,1.72,2.94,3.61,3.05,5.68.11,2.06-.79,3.84-2.71,5.33-3.85,3.1-8.63,5.62-14.34,7.57-5.71,1.95-11.17,2.92-16.37,2.92Z"/>
    <path class="cls-1" d="M1939.39,519.56c-2.72,0-4.81-.72-6.28-2.15-1.47-1.43-2.21-3.58-2.21-6.45v-76.9c0-2.75.73-4.87,2.21-6.37s3.56-2.24,6.28-2.24,4.95.72,6.36,2.15c1.41,1.44,2.12,3.59,2.12,6.45v76.9c0,2.75-.71,4.88-2.12,6.37-1.42,1.49-3.54,2.24-6.36,2.24ZM1939.22,460.72c0-6.88,1.67-13.05,5-18.5,3.34-5.45,7.83-9.78,13.49-12.99,5.65-3.21,11.88-4.82,18.66-4.82s11.85,1.12,15.18,3.36c3.34,2.24,4.61,4.9,3.82,8-.34,1.61-.99,2.84-1.95,3.7-.96.86-2.07,1.41-3.31,1.63-1.25.23-2.6.17-4.07-.17-7.24-1.49-13.74-1.6-19.51-.34-5.77,1.26-10.32,3.61-13.66,7.05-3.34,3.44-5,7.8-5,13.08h-8.65Z"/>
  </g>
</svg>